<?xml version="1.0" encoding="UTF-8"?>
<svg width="16px" height="18px" viewBox="0 0 16 18" version="1.1" xmlns="http://www.w3.org/2000/svg" xmlns:xlink="http://www.w3.org/1999/xlink">
    <!-- Generator: sketchtool 54.1 (76490) - https://sketchapp.com -->
    <title>9199C3BD-5D6D-497E-93D7-D96A1F6304B8</title>
    <desc>Created with sketchtool.</desc>
    <g id="-" stroke="none" stroke-width="1" fill="none" fill-rule="evenodd">
        <g id="Template-library" transform="translate(-1278.000000, -279.000000)" fill="#607D8B" fill-rule="nonzero">
            <g id="delete-icon" transform="translate(1278.000000, 279.000000)">
                <path d="M15.3094737,2.671875 C15.0978947,2.671875 11.5839474,2.671875 11.3684211,2.671875 L11.3684211,0.703125 C11.3684211,0.314758301 11.0668421,0 10.6947368,0 L5.30526316,0 C4.93315789,0 4.63157895,0.314758301 4.63157895,0.703125 L4.63157895,2.671875 C4.41605261,2.671875 0.902631579,2.671875 0.690526316,2.671875 C0.318421053,2.671875 0.0168421053,2.9866333 0.0168421053,3.375 C0.0168421053,3.7633667 0.318421053,4.078125 0.690526316,4.078125 L1.93684211,4.078125 L1.93684211,17.296875 C1.93684211,17.6852417 2.23842105,18 2.61052632,18 L13.3894737,18 C13.7615789,18 14.0631579,17.6852417 14.0631579,17.296875 L14.0631579,4.078125 L15.3094737,4.078125 C15.6815789,4.078125 15.9831579,3.7633667 15.9831579,3.375 C15.9831579,2.9866333 15.6815789,2.671875 15.3094737,2.671875 Z M5.97894737,1.40625 L10.0210526,1.40625 L10.0210526,2.671875 L5.97894737,2.671875 L5.97894737,1.40625 Z M12.7157895,16.59375 L3.28421053,16.59375 L3.28421053,4.078125 L12.7157895,4.078125 L12.7157895,16.59375 Z M6.87723685,6.046875 L6.87723685,14.625 C6.87723685,15.0133667 6.5756579,15.328125 6.20355264,15.328125 C5.83144738,15.328125 5.52986843,15.0133667 5.52986843,14.625 L5.52986843,6.046875 C5.52986843,5.6585083 5.83144738,5.34375 6.20355264,5.34375 C6.5756579,5.34375 6.87723685,5.6585083 6.87723685,6.046875 Z M10.4701316,6.046875 L10.4701316,14.625 C10.4701316,15.0133667 10.1685526,15.328125 9.79644736,15.328125 C9.4243421,15.328125 9.12276315,15.0133667 9.12276315,14.625 L9.12276315,6.046875 C9.12276315,5.6585083 9.4243421,5.34375 9.79644736,5.34375 C10.1685526,5.34375 10.4701316,5.6585083 10.4701316,6.046875 Z" id="Shape"></path>
            </g>
        </g>
    </g>
</svg>