<?xml version="1.0" encoding="UTF-8"?>
<svg width="18px" height="18px" viewBox="0 0 18 18" version="1.1" xmlns="http://www.w3.org/2000/svg" xmlns:xlink="http://www.w3.org/1999/xlink">
    <!-- Generator: Sketch 54.1 (76490) - https://sketchapp.com -->
    <title>edit-icon</title>
    <desc>Created with Sketch.</desc>
    <g id="CSAT" stroke="none" stroke-width="1" fill="none" fill-rule="evenodd">
        <g id="Template-library-Admin" transform="translate(-1179.000000, -279.000000)" fill="#607D8B" fill-rule="nonzero">
            <g id="edit-icon" transform="translate(1179.000000, 279.000000)">
                <path d="M17.2257421,0.606429799 L17.2040802,0.586676218 C16.7899255,0.208366762 16.2530716,0 15.6923897,0 C15.0638338,0 14.4603438,0.266080229 14.036596,0.729954155 L6.0242235,9.50188539 C5.95119198,9.58182808 5.89579943,9.67616046 5.86155301,9.77884814 L4.91941547,12.6032493 C4.81048711,12.9297765 4.86515759,13.2909112 5.06563324,13.5692149 C5.26770774,13.8496848 5.59325501,14.0171519 5.93654441,14.0171519 C5.93654441,14.0171519 5.93659599,14.0171519 5.93659599,14.0171519 C6.08508309,14.0171519 6.23021777,13.9866189 6.36787393,13.9263782 L9.09572493,12.7330143 C9.19490544,12.689639 9.28387393,12.6259427 9.35685387,12.546 L17.3692779,3.77412034 C18.2030544,2.86138109 18.1387393,1.44046418 17.2257421,0.606429799 Z M6.72452149,12.0815072 L7.2773639,10.4241662 L7.32398854,10.373106 L8.37180516,11.330149 L8.32518052,11.3812092 L6.72452149,12.0815072 Z M16.2268711,2.73058453 L9.41534097,10.1877937 L8.36752436,9.23075072 L15.1790544,1.77348997 C15.3122751,1.62763324 15.494596,1.54727794 15.6924413,1.54727794 C15.8659943,1.54727794 16.0322235,1.611851 16.1608539,1.72934097 L16.1824642,1.74909456 C16.4653066,2.0074384 16.4852149,2.44774212 16.2268711,2.73058453 Z" id="Shape"></path>
                <path d="M15.6713467,7.13748997 C15.2440917,7.13748997 14.8977077,7.48387393 14.8977077,7.91112894 L14.8977077,14.4791691 C14.8977077,15.5640172 14.0150888,16.4466361 12.9302407,16.4466361 L3.55378797,16.4466361 C2.46888825,16.4466361 1.58632092,15.5640172 1.58632092,14.4791691 L1.58632092,5.17889398 C1.58632092,4.09404585 2.46893983,3.21142693 3.55378797,3.21142693 L10.34051,3.21142693 C10.767765,3.21142693 11.114149,2.86504298 11.114149,2.43778797 C11.114149,2.01053295 10.767765,1.664149 10.34051,1.664149 L3.55378797,1.664149 C1.6157192,1.664149 0.0390429799,3.24087679 0.0390429799,5.17889398 L0.0390429799,14.4791175 C0.0390429799,16.4171347 1.61577077,17.9938625 3.55378797,17.9938625 L12.9301891,17.9938625 C14.8682063,17.9938625 16.4449341,16.4171347 16.4449341,14.4791175 L16.4449341,7.91112894 C16.4449857,7.48387393 16.0986017,7.13748997 15.6713467,7.13748997 Z" id="Path"></path>
            </g>
        </g>
    </g>
</svg>